# xmcd
#
# Track frame offsets:
#	150
#	14437
#	28250
#	42400
#	54907
#	67700
#	80150
#	94250
#	107657
#	123095
#	137507
#	150225
#	164925
#	179257
#	191707
#	207262
#	223112
#	237400
#	251200
#	264557
#	279650
#	292375
#	305650
#	318300
#
# Disc length: 4431 seconds
#
# Revision: 1
# Processed by: cddbd v1.5.2PL0 Copyright (c) Steve Scherf et al.
# Submitted via: audiograbber 1.83.01
#
DISCID=6e114d18
DTITLE='Banjo' Ikey Robinson  - 1929-37 Recordings
DYEAR=1994
DGENRE=Country
TTITLE0=Got Butter On It [1929] A
TTITLE1=Ready Hokum [1929] B
TTITLE2=Pizen Tea Blues [1929] C
TTITLE3=Rock Pie Blues [1929] C
TTITLE4=You'Ve Had Your Way [1929] D
TTITLE5=Without A Dime [1929] E
TTITLE6=I'm Havin' My Fun (Take 1) [1930] F
TTITLE7=I'm Havin' My Fun (Take 3) [1930] F
TTITLE8=You'Ve Had Your Way [1930] F
TTITLE9=He Wouldn'T Stop Doing It (Take 1) [1930] F
TTITLE10=He Wouldn'T Stop Doing It (Take 3) [1929] B
TTITLE11=You'Re Bound To Look Like A Monkey When ou Get Old [1929] B
TTITLE12=You'Ve Had Your Way [1931] G
TTITLE13=Get Off Stuff [1931] G
TTITLE14=Gee I Hat To Loose That Girl [1931] G
TTITLE15=I Was A Good Loser Until I Lost You [1931] G
TTITLE16=Scrunch-Lo [1935] H
TTITLE17=Sunshine [1935] H
TTITLE18=A Minor Stomp [1935] H
TTITLE19=Swing It [1935] H
TTITLE20=Say Pretty Mama [1937] I
TTITLE21=Slocum Blues [1937] I
TTITLE22=Raggedy But Right [1937] I
TTITLE23=Chocolate Candy Blues [1937] I
EXTD=A Ikey Robinson and his band, Chicago 04th Jan 2029\nB Ikey Robinson and his B
EXTD=and Chicago 22th Jan 1929 \nC Chicago, 01st Feb 1929\nD Chicago, 01st Marc
EXTD=h 1929\nE Chicago, 01st March 1929\nF New York, 01st March 1930\nG New Yor
EXTD=k, 06th Feb 1931\nH Chicago, 02nd July 1935\nI Chicago, 06th 19th May 1937
EXTD=\n
EXTT0=
EXTT1=
EXTT2=
EXTT3=
EXTT4=
EXTT5=
EXTT6=
EXTT7=
EXTT8=
EXTT9=
EXTT10=
EXTT11=
EXTT12=
EXTT13=
EXTT14=
EXTT15=
EXTT16=
EXTT17=
EXTT18=
EXTT19=
EXTT20=
EXTT21=
EXTT22=
EXTT23=
PLAYORDER=
